{
    "asset" : {
        "generator" : "Khronos glTF Blender I/O v1.5.17",
        "version" : "2.0"
    },
    "scene" : 0,
    "scenes" : [
        {
            "name" : "Scene",
            "nodes" : [
                0
            ]
        }
    ],
    "nodes" : [
        {
            "mesh" : 0,
            "name" : "BoomBox"
        }
    ],
    "materials" : [
        {
            "emissiveTexture" : {
                "index" : 0
            },
            "name" : "BoomBox_Mat",
            "normalTexture" : {
                "index" : 1
            },
            "pbrMetallicRoughness" : {
                "baseColorTexture" : {
                    "index" : 2
                },
                "metallicRoughnessTexture" : {
                    "index" : 3
                }
            }
        }
    ],
    "meshes" : [
        {
            "name" : "BoomBox",
            "primitives" : [
                {
                    "attributes" : {
                        "POSITION" : 0,
                        "NORMAL" : 1,
                        "TEXCOORD_0" : 2
                    },
                    "indices" : 3,
                    "material" : 0
                }
            ]
        }
    ],
    "textures" : [
        {
            "sampler" : 0,
            "source" : 0
        },
        {
            "sampler" : 0,
            "source" : 1
        },
        {
            "sampler" : 0,
            "source" : 2
        },
        {
            "sampler" : 0,
            "source" : 3
        }
    ],
    "images" : [
        {
            "mimeType" : "image/png",
            "name" : "emissive",
            "uri" : "emissive.png"
        },
        {
            "mimeType" : "image/png",
            "name" : "normal",
            "uri" : "normal.png"
        },
        {
            "mimeType" : "image/png",
            "name" : "baseColor",
            "uri" : "baseColor.png"
        },
        {
            "mimeType" : "image/png",
            "name" : "metallicRoughness",
            "uri" : "metallicRoughness.png"
        }
    ],
    "accessors" : [
        {
            "bufferView" : 0,
            "componentType" : 5126,
            "count" : 3749,
            "max" : [
                0.5854595303535461,
                0.5766363143920898,
                0.594611644744873
            ],
            "min" : [
                -0.5854595303535461,
                -0.5766361355781555,
                -0.5946117639541626
            ],
            "type" : "VEC3"
        },
        {
            "bufferView" : 1,
            "componentType" : 5126,
            "count" : 3749,
            "type" : "VEC3"
        },
        {
            "bufferView" : 2,
            "componentType" : 5126,
            "count" : 3749,
            "type" : "VEC2"
        },
        {
            "bufferView" : 3,
            "componentType" : 5123,
            "count" : 18108,
            "type" : "SCALAR"
        }
    ],
    "bufferViews" : [
        {
            "buffer" : 0,
            "byteLength" : 44988,
            "byteOffset" : 0
        },
        {
            "buffer" : 0,
            "byteLength" : 44988,
            "byteOffset" : 44988
        },
        {
            "buffer" : 0,
            "byteLength" : 29992,
            "byteOffset" : 89976
        },
        {
            "buffer" : 0,
            "byteLength" : 36216,
            "byteOffset" : 119968
        }
    ],
    "samplers" : [
        {
            "magFilter" : 9729,
            "minFilter" : 9987
        }
    ],
    "buffers" : [
        {
            "byteLength" : 156184,
            "uri" : "BoomBox.bin"
        }
    ]
}
